{"title":"Undercover Blues (1993) Dennis Quaid (Widescr.Opt. MULTISUBS)","uid":4474664,"size":734980542,"categoryP":"video","categoryS":"movies","magnet":"?xt=urn:btih:7d551f12ee78573f698b11f1d56677679ce27b8d&amp;dn=Undercover+Blues+%281993%29+Dennis+Quaid+%28Widescr.Opt.+MULTISUBS%29&amp;tr=udp%3A%2F%2Ftracker.openbittorrent.com%3A80&amp;tr=udp%3A%2F%2Fopen.demonii.com%3A1337&amp;tr=udp%3A%2F%2Ftracker.coppersurfer.tk%3A6969&amp;tr=udp%3A%2F%2Fexodus.desync.com%3A6969","seeders":4,"leechers":3,"uploader":"Kuthumi","files":-1,"time":1225292998,"description":" &lt;a href=&quot;http://www.imdb.com/title/tt0108442/&quot; rel=&quot;nofollow&quot; target=&quot;_NEW&quot;&gt;http://www.imdb.com/title/tt0108442/&lt;/a&gt;\n\nWith Kathleen Turner, Stanley &quot;Muerte&quot; Tucci and Fiona Shaw\n\nOptional subtitles in separate idx/sub files:\nDanish, Dutch, English, Finnish, French, German, Greek, Italian, Norwegian, Spanish, Swedish\n\nOne of my first favourite action comedies about a couple on maternity &quot;leave&quot; from their jobs as secret agents.\n\nWidescreen XviD 2-pass 720x400, great stereo AC3.\nBurn tested, runs well in both my standalone DivX players.\n\nFormat/Info                      : Audio Video Interleave\nFile size                        : 693 MiB\nDuration                         : 1h 26mn\nOveral bit rate                  : 1125 Kbps\nVideo\nFormat                           : MPEG-4 Visual\nFormat profile                   : Streaming Video@L1\nFormat settings, BVOP            : Yes\nFormat settings, QPel            : No\nFormat settings, GMC             : No warppoints\nFormat settings, Matrix          : Default\nMuxing mode                      : Packet Bitstream\nCodec ID                         : XVID\nCodec ID/Hint                    : XviD\nDuration                         : 1h 26mn\nBit rate                         : 987 Kbps\nWidth                            : 720 pixels\nHeight                           : 400 pixels\nDisplay aspect ratio             : 16/9\nFrame rate                       : 25.000 fps\nResolution                       : 8 bits\nColorimetry                      : 4:2:0\nScan type                        : Progressive\nBits/(Pixel*Frame)               : 0.137\nStream size                      : 608 MiB\nWriting library                  : XviD 1.2.0.dev47 (UTC 2006-11-01)\n\nAudio\nFormat                           : MPEG Audio\nFormat version                   : Version 1\nFormat profile                   : Layer 3\nCodec ID                         : 55\nCodec ID/Hint                    : MP3\nDuration                         : 1h 26mn\nBit rate mode                    : Constant\nBit rate                         : 128 Kbps\nMinimum bit rate                 : 128 Kbps\nChannel(s)                       : 2 channels\nSampling rate                    : 48.0 KHz\nResolution                       : 16 bits\nStream size                      : 78.9 MiB\nWriting library                  : LAME3.97 \nEncoding settings                : CBR\n\nSource: PAL rental (note that PAL/NTSC will give no problems for avi \nfiles).","torrent":{"xt":"urn:btih:7d551f12ee78573f698b11f1d56677679ce27b8d","amp;dn":"Undercover+Blues+%281993%29+Dennis+Quaid+%28Widescr.Opt.+MULTISUBS%29","amp;tr":["udp%3A%2F%2Ftracker.openbittorrent.com%3A80","udp%3A%2F%2Fopen.demonii.com%3A1337","udp%3A%2F%2Ftracker.coppersurfer.tk%3A6969","udp%3A%2F%2Fexodus.desync.com%3A6969"],"infoHash":"7d551f12ee78573f698b11f1d56677679ce27b8d","infoHashBuffer":{"type":"Buffer","data":[125,85,31,18,238,120,87,63,105,139,17,241,213,102,119,103,156,226,123,141]},"announce":[],"urlList":[]}}